<svg width="36" height="36" viewBox="0 0 36 36" fill="none" xmlns="http://www.w3.org/2000/svg">
<path d="M34.4914 22.1124C32.2206 31.2196 22.9954 36.7621 13.8861 34.491C4.78056 32.2206 -0.762544 22.9958 1.50918 13.8894C3.77891 4.78112 13.0041 -0.761775 22.1106 1.5087C31.2193 3.77917 36.7621 13.0049 34.4911 22.1125L34.4913 22.1124H34.4914Z" stroke="#FF6633"/>
<path d="M21.7574 11.2882L21.2722 11.1673L21.1614 11.6118L21.5946 11.761L21.7574 11.2882ZM25.4971 15.5779L25.0026 15.5039L25.9453 15.7994L25.4971 15.5779ZM22.5215 8.22371L23.0067 8.34468L23.1277 7.85944L22.6424 7.73854L22.5215 8.22371ZM20.6559 7.75888L20.7767 7.27371L20.2916 7.15285L20.1707 7.63793L20.6559 7.75888ZM19.912 10.7427L19.791 11.2279L20.2762 11.3489L20.3971 10.8637L19.912 10.7427ZM18.4172 10.3909L17.9321 10.2699L17.8086 10.7648L18.3059 10.8784L18.4172 10.3909ZM19.1665 7.38736L19.6516 7.50838L19.7726 7.02318L19.2874 6.90221L19.1665 7.38736ZM17.3019 6.92253L17.4229 6.43738L16.9379 6.31646L16.8168 6.80146L17.3019 6.92253ZM16.5374 9.98606L16.4264 10.4736L16.9039 10.5823L17.0225 10.1071L16.5374 9.98606ZM15.3461 9.70611L14.8582 9.59678L14.7514 10.0734L15.2254 10.1913L15.3461 9.70611ZM15.3483 9.69647L15.8362 9.80581L15.9429 9.32959L15.4694 9.21137L15.3483 9.69647ZM12.7754 9.05407L12.8966 8.56896L12.4112 8.44777L12.2903 8.93322L12.7754 9.05407ZM12.2792 11.0465L11.794 10.9257L11.6708 11.42L12.1674 11.5339L12.2792 11.0465ZM13.6342 11.3833L13.356 10.9678L12.4187 11.5953L13.5131 11.8684L13.6342 11.3833ZM14.5036 12.4683L14.9887 12.5892L15.0001 12.5437L15.0028 12.4968L14.5036 12.4683ZM13.6332 15.9595L13.148 15.8385L13.0276 16.3215L13.5101 16.4441L13.6332 15.9595ZM13.8271 16.0217L13.7061 16.5068L14.0135 15.5577L13.8271 16.0217ZM13.773 16.0082L13.894 15.5231L13.8925 15.5227L13.773 16.0082ZM13.7729 16.0082L13.6515 16.4932L13.6533 16.4937L13.7729 16.0082ZM13.6299 15.9729L13.7463 15.4867L13.2647 15.3714L13.1448 15.8519L13.6299 15.9729ZM12.4099 20.8636L12.8737 21.0502L12.8866 21.0182L12.895 20.9846L12.4099 20.8636ZM11.555 21.3068L11.6752 20.8214L10.3933 20.504L11.1435 21.5908L11.555 21.3068ZM10.199 20.9684L10.3274 20.4852L9.91153 20.3746L9.74028 20.7694L10.199 20.9684ZM9.27271 23.1038L8.814 22.9048L8.57915 23.4462L9.15177 23.5889L9.27271 23.1038ZM11.7006 23.7089L11.8222 23.224L11.8215 23.2238L11.7006 23.7089ZM12.4893 23.9119L12.3632 24.3957L12.3635 24.3958L12.4893 23.9119ZM12.4902 23.9121L12.6163 23.4283L12.616 23.4282L12.4902 23.9121ZM13.0307 24.0521L13.5159 24.173L13.636 23.6908L13.1546 23.5677L13.0307 24.0521ZM12.2587 27.1518L11.7735 27.0309L11.6527 27.516L12.1377 27.6369L12.2587 27.1518ZM14.1222 27.6166L14.0012 28.1018L14.4864 28.2228L14.6074 27.7376L14.1222 27.6166ZM14.8868 24.5499L15.0178 24.0673L14.5251 23.9336L14.4016 24.4289L14.8868 24.5499ZM16.3736 24.9357L16.8587 25.0568L16.9799 24.5711L16.4941 24.4504L16.3736 24.9357ZM15.6116 27.988L15.1265 27.8669L15.0053 28.3522L15.4907 28.4731L15.6116 27.988ZM17.4774 28.4528L17.3565 28.938L17.8415 29.0588L17.9625 28.5738L17.4774 28.4528ZM18.2493 25.3589L18.3423 24.8677L17.8785 24.7799L17.7642 25.2379L18.2493 25.3589ZM24.8297 22.841L24.3578 22.6757L24.3578 22.6759L24.8297 22.841ZM23.1156 18.317L23.0033 17.8298L21.6822 18.1345L22.8848 18.7605L23.1156 18.317ZM25.4977 15.5781L25.9924 15.6513L26.037 15.349L25.7885 15.1714L25.4977 15.5781ZM25.4971 15.5777L25.7879 15.171L25.3095 14.829L25.0489 15.3562L25.4971 15.5777ZM15.856 22.3994L15.726 22.8822L15.7283 22.8828L15.856 22.3994ZM21.2343 21.5547V21.0547H20.8435L20.7491 21.434L21.2343 21.5547ZM15.8559 22.3994L15.9859 21.9166L15.9835 21.9159L15.8559 22.3994ZM15.4923 22.305L15.0072 22.184L14.886 22.6696L15.3718 22.7903L15.4923 22.305ZM16.5168 18.1985L16.6379 17.7134L16.1527 17.5923L16.0317 18.0774L16.5168 18.1985ZM16.9755 18.3046L17.0901 17.8179L17.085 17.8168L16.9755 18.3046ZM16.9756 18.3046L16.8611 18.7914L16.8661 18.7925L16.9756 18.3046ZM21.2344 21.5547V22.0547H21.625L21.7195 21.6757L21.2344 21.5547ZM21.8113 15.5447V15.0447H21.4208L21.3262 15.4236L21.8113 15.5447ZM17.2914 16.3989L17.1625 16.882H17.1625L17.2914 16.3989ZM21.8115 15.5447V16.0447H22.2022L22.2966 15.6656L21.8115 15.5447ZM18.2991 12.6825L18.1911 13.1707H18.1911L18.2991 12.6825ZM17.9144 12.5944L18.0353 12.1092L17.5502 11.9883L17.4293 12.4734L17.9144 12.5944ZM16.9856 16.3188L16.5004 16.1978L16.3794 16.683L16.8646 16.8039L16.9856 16.3188ZM21.5946 11.761C22.7478 12.1582 23.6806 12.6344 24.2825 13.2411C24.8595 13.8227 25.1473 14.5363 25.0026 15.5039L25.9916 15.6519C26.1852 14.3572 25.7809 13.3316 24.9924 12.5368C24.2287 11.767 23.1225 11.2295 21.9202 10.8155L21.5946 11.761ZM22.0364 8.10274L21.2722 11.1673L22.2425 11.4092L23.0067 8.34468L22.0364 8.10274ZM20.535 8.24405L22.4007 8.70888L22.6424 7.73854L20.7767 7.27371L20.535 8.24405ZM20.3971 10.8637L21.141 7.87982L20.1707 7.63793L19.4268 10.6218L20.3971 10.8637ZM18.3059 10.8784C18.8072 10.9928 19.3061 11.1069 19.791 11.2279L20.033 10.2576C19.5369 10.1339 19.0285 10.0175 18.5285 9.90343L18.3059 10.8784ZM18.6813 7.26634L17.9321 10.2699L18.9023 10.5119L19.6516 7.50838L18.6813 7.26634ZM17.181 7.40768L19.0455 7.87251L19.2874 6.90221L17.4229 6.43738L17.181 7.40768ZM17.0225 10.1071L17.7871 7.0436L16.8168 6.80146L16.0523 9.86499L17.0225 10.1071ZM15.2254 10.1913C15.6176 10.2889 16.0208 10.3812 16.4264 10.4736L16.6484 9.49853C16.2422 9.40607 15.8481 9.31577 15.4668 9.2209L15.2254 10.1913ZM14.8604 9.58714L14.8582 9.59678L15.834 9.81545L15.8362 9.80581L14.8604 9.58714ZM12.6543 9.53918L15.2271 10.1816L15.4694 9.21137L12.8966 8.56896L12.6543 9.53918ZM12.7643 11.1674L13.2606 9.17492L12.2903 8.93322L11.794 10.9257L12.7643 11.1674ZM13.9123 11.7988C13.9724 11.7585 14.0692 11.6738 14.1134 11.5267C14.1596 11.3731 14.1222 11.2397 14.0819 11.1589C14.0183 11.0314 13.9176 10.9695 13.9097 10.9643C13.861 10.9319 13.8155 10.9145 13.8086 10.9117C13.7787 10.8998 13.7478 10.8903 13.7283 10.8844C13.6834 10.8709 13.6239 10.8549 13.5599 10.8383C13.4295 10.8046 13.2555 10.7623 13.0837 10.7212C12.9112 10.6801 12.738 10.6395 12.6081 10.6094C12.5432 10.5943 12.4889 10.5817 12.4509 10.573C12.4319 10.5686 12.4169 10.5651 12.4067 10.5628C12.4016 10.5616 12.3976 10.5607 12.395 10.5601C12.3936 10.5598 12.3926 10.5596 12.3919 10.5594C12.3916 10.5593 12.3913 10.5593 12.3911 10.5592C12.3911 10.5592 12.391 10.5592 12.3909 10.5592C12.3909 10.5592 12.3909 10.5592 12.3909 10.5592C12.3909 10.5591 12.3909 10.5591 12.2792 11.0465C12.1674 11.5339 12.1674 11.5339 12.1675 11.5339C12.1675 11.5339 12.1675 11.5339 12.1675 11.5339C12.1675 11.5339 12.1676 11.5339 12.1677 11.5339C12.1678 11.534 12.1681 11.534 12.1684 11.5341C12.169 11.5342 12.17 11.5345 12.1713 11.5347C12.1738 11.5353 12.1777 11.5362 12.1827 11.5374C12.1927 11.5397 12.2075 11.5431 12.2262 11.5474C12.2638 11.5561 12.3175 11.5685 12.3818 11.5834C12.5106 11.6133 12.6816 11.6533 12.8515 11.6939C13.0221 11.7346 13.1886 11.7752 13.3096 11.8065C13.3713 11.8225 13.4151 11.8344 13.4403 11.842C13.4558 11.8467 13.4517 11.846 13.4389 11.8409C13.4346 11.8392 13.426 11.8357 13.415 11.8304C13.4062 11.8263 13.3834 11.8152 13.3559 11.7969C13.3498 11.7929 13.2503 11.732 13.1871 11.6054C13.147 11.525 13.1097 11.3921 13.1558 11.2388C13.1998 11.0922 13.2964 11.0077 13.356 10.9678L13.9123 11.7988ZM15.0028 12.4968C15.0178 12.2351 14.9832 11.8956 14.7828 11.5799C14.5757 11.2536 14.2326 11.0173 13.7552 10.8982L13.5131 11.8684C13.7912 11.9378 13.8942 12.0459 13.9386 12.1158C13.9897 12.1963 14.0121 12.3051 14.0044 12.4397L15.0028 12.4968ZM14.1183 16.0804L14.9887 12.5892L14.0184 12.3473L13.148 15.8385L14.1183 16.0804ZM14.0135 15.5577C13.9108 15.5165 13.82 15.4911 13.7562 15.4749L13.5101 16.4441C13.5504 16.4543 13.5945 16.4671 13.6407 16.4857L14.0135 15.5577ZM13.6519 16.4933L13.7061 16.5068L13.9482 15.5366L13.894 15.5231L13.6519 16.4933ZM13.6533 16.4937L13.6534 16.4937L13.8925 15.5227L13.8924 15.5227L13.6533 16.4937ZM13.5135 16.4592C13.5597 16.4703 13.6051 16.4816 13.6515 16.4932L13.8942 15.5231C13.8486 15.5117 13.7983 15.4991 13.7463 15.4867L13.5135 16.4592ZM12.895 20.9846L14.1151 16.094L13.1448 15.8519L11.9247 20.7426L12.895 20.9846ZM11.4348 21.7921C11.8312 21.8902 12.1749 21.8163 12.4388 21.6255C12.6812 21.4503 12.8092 21.2107 12.8737 21.0502L11.946 20.677C11.9182 20.746 11.8829 20.7934 11.8529 20.8151C11.8416 20.8233 11.8292 20.8294 11.8103 20.8328C11.7906 20.8363 11.7483 20.8395 11.6752 20.8214L11.4348 21.7921ZM10.199 20.9684C10.0705 21.4516 10.0705 21.4516 10.0705 21.4516C10.0706 21.4516 10.0706 21.4516 10.0706 21.4516C10.0706 21.4517 10.0707 21.4517 10.0708 21.4517C10.071 21.4517 10.0712 21.4518 10.0716 21.4519C10.0723 21.4521 10.0733 21.4523 10.0746 21.4527C10.0772 21.4534 10.0811 21.4544 10.0862 21.4558C10.0963 21.4585 10.1112 21.4624 10.1301 21.4674C10.1678 21.4774 10.2217 21.4916 10.2862 21.5086C10.4153 21.5426 10.5874 21.5876 10.7592 21.6319C10.9304 21.676 11.1036 21.72 11.2338 21.7514C11.2978 21.7668 11.3566 21.7805 11.4009 21.7896C11.4204 21.7937 11.4493 21.7994 11.4777 21.8032C11.4839 21.804 11.5265 21.8101 11.5778 21.8075C11.5933 21.8068 11.6202 21.8048 11.653 21.7981C11.6797 21.7928 11.746 21.7776 11.8186 21.7325C11.8979 21.6833 12.0235 21.5706 12.0505 21.3758C12.0748 21.1996 12.0006 21.0722 11.9665 21.0227L11.1435 21.5908C11.1097 21.5418 11.0356 21.4147 11.0599 21.2388C11.0868 21.0443 11.2122 20.932 11.2911 20.883C11.3634 20.8381 11.4291 20.8232 11.4551 20.8179C11.4872 20.8114 11.5132 20.8095 11.5277 20.8088C11.5566 20.8074 11.5788 20.8089 11.5866 20.8095C11.5968 20.8103 11.6045 20.8112 11.608 20.8117C11.6183 20.813 11.6196 20.8137 11.6033 20.8104C11.576 20.8047 11.5304 20.7943 11.4682 20.7793C11.3459 20.7498 11.1789 20.7074 11.0088 20.6636C10.8392 20.6199 10.6689 20.5753 10.5407 20.5415C10.4767 20.5247 10.4233 20.5106 10.386 20.5007C10.3673 20.4958 10.3526 20.4919 10.3426 20.4892C10.3376 20.4879 10.3338 20.4869 10.3313 20.4862C10.33 20.4859 10.329 20.4856 10.3284 20.4854C10.3281 20.4853 10.3278 20.4853 10.3277 20.4852C10.3276 20.4852 10.3275 20.4852 10.3275 20.4852C10.3275 20.4852 10.3275 20.4852 10.3274 20.4852C10.3274 20.4852 10.3274 20.4852 10.199 20.9684ZM9.73141 23.3027L10.6577 21.1674L9.74028 20.7694L8.814 22.9048L9.73141 23.3027ZM11.8215 23.2238L9.39364 22.6186L9.15177 23.5889L11.5797 24.1941L11.8215 23.2238ZM12.6154 23.4281C12.3557 23.3604 12.0907 23.2913 11.8222 23.224L11.579 24.1939C11.8422 24.2599 12.1028 24.3278 12.3632 24.3957L12.6154 23.4281ZM12.616 23.4282L12.6151 23.428L12.3635 24.3958L12.3644 24.396L12.616 23.4282ZM13.1546 23.5677C12.9769 23.5223 12.7979 23.4756 12.6163 23.4283L12.3641 24.396C12.5453 24.4432 12.7266 24.4904 12.9069 24.5365L13.1546 23.5677ZM12.7439 27.2726L13.5159 24.173L12.5456 23.9313L11.7735 27.0309L12.7439 27.2726ZM14.2432 27.1315L12.3797 26.6667L12.1377 27.6369L14.0012 28.1018L14.2432 27.1315ZM14.4016 24.4289L13.6371 27.4957L14.6074 27.7376L15.3719 24.6708L14.4016 24.4289ZM16.4941 24.4504C16.0135 24.331 15.5229 24.2044 15.0178 24.0673L14.7558 25.0324C15.2688 25.1716 15.7664 25.3 16.253 25.4209L16.4941 24.4504ZM16.0967 28.1091L16.8587 25.0568L15.8885 24.8146L15.1265 27.8669L16.0967 28.1091ZM17.5983 27.9676L15.7325 27.5028L15.4907 28.4731L17.3565 28.938L17.5983 27.9676ZM17.7642 25.2379L16.9923 28.3318L17.9625 28.5738L18.7345 25.48L17.7642 25.2379ZM24.3578 22.6759C23.9013 23.9803 23.1624 24.6332 22.2079 24.9268C21.2082 25.2344 19.9161 25.1655 18.3423 24.8677L18.1564 25.8502C19.764 26.1544 21.2586 26.2652 22.502 25.8826C23.7907 25.4861 24.7513 24.5789 25.3017 23.0062L24.3578 22.6759ZM22.8848 18.7605C23.6651 19.1668 24.1884 19.648 24.4466 20.2376C24.7018 20.8206 24.7357 21.5968 24.3578 22.6757L25.3016 23.0063C25.7351 21.7687 25.7488 20.7186 25.3626 19.8365C24.9793 18.9612 24.2399 18.3386 23.3465 17.8735L22.8848 18.7605ZM25.0031 15.505C24.8925 16.2533 24.6368 16.7677 24.3063 17.1223C23.9753 17.4773 23.5371 17.7067 23.0033 17.8298L23.228 18.8042C23.9132 18.6462 24.5436 18.3342 25.0378 17.8041C25.5323 17.2735 25.8582 16.559 25.9924 15.6513L25.0031 15.505ZM25.2064 15.9845L25.207 15.9849L25.7885 15.1714L25.7879 15.171L25.2064 15.9845ZM25.9453 15.7994L25.9454 15.7993L25.0489 15.3562L25.0488 15.3564L25.9453 15.7994ZM15.7283 22.8828C16.4782 23.0809 17.7527 23.4203 18.9156 23.4248C19.4984 23.4271 20.1023 23.3466 20.6129 23.0848C21.1449 22.8121 21.5506 22.354 21.7195 21.6755L20.7491 21.434C20.6535 21.8182 20.4449 22.0472 20.1567 22.1949C19.8472 22.3536 19.425 22.4268 18.9196 22.4248C17.9061 22.4209 16.756 22.1199 15.9836 21.916L15.7283 22.8828ZM15.7259 22.8822L15.726 22.8822L15.9859 21.9166L15.9859 21.9166L15.7259 22.8822ZM15.3718 22.7903C15.4718 22.8151 15.5902 22.8463 15.7282 22.8828L15.9835 21.9159C15.8478 21.8801 15.7215 21.8467 15.6128 21.8197L15.3718 22.7903ZM16.0317 18.0774L15.0072 22.184L15.9774 22.426L17.002 18.3195L16.0317 18.0774ZM17.085 17.8168C16.9069 17.7768 16.7581 17.7434 16.6379 17.7134L16.3957 18.6836C16.53 18.7171 16.6919 18.7534 16.8661 18.7925L17.085 17.8168ZM17.0901 17.8179L17.09 17.8179L16.861 18.7913L16.8611 18.7913L17.0901 17.8179ZM21.7195 21.6757C21.889 20.996 21.7638 20.3993 21.4359 19.9039C21.1206 19.4276 20.6381 19.0739 20.1331 18.8057C19.1278 18.272 17.8595 17.9905 17.0851 17.8168L16.8661 18.7925C17.6662 18.972 18.7983 19.2292 19.6642 19.689C20.0948 19.9176 20.4157 20.1743 20.602 20.4559C20.7758 20.7184 20.8507 21.0271 20.7492 21.4338L21.7195 21.6757ZM21.2343 22.0547H21.2344V21.0547H21.2343V22.0547ZM21.3262 15.4236C21.2386 15.7743 21.0609 15.9766 20.8333 16.1058C20.5873 16.2455 20.2503 16.3167 19.8386 16.3232C19.0088 16.3363 18.067 16.0883 17.4204 15.9158L17.1625 16.882C17.785 17.0481 18.862 17.3388 19.8544 17.3231C20.3538 17.3152 20.8786 17.23 21.327 16.9755C21.7937 16.7105 22.1429 16.2808 22.2964 15.6658L21.3262 15.4236ZM21.8115 15.0447H21.8113V16.0447H21.8115V15.0447ZM18.1911 13.1707C18.8619 13.3192 19.7889 13.5281 20.4893 13.9186C20.8353 14.1115 21.085 14.3271 21.2268 14.5627C21.3587 14.7819 21.4189 15.0524 21.3263 15.4238L22.2966 15.6656C22.4503 15.0491 22.3588 14.5044 22.0836 14.0471C21.8183 13.6063 21.4055 13.2844 20.9762 13.0451C20.1258 12.5711 19.0504 12.3367 18.4072 12.1944L18.1911 13.1707ZM17.7935 13.0796C17.9078 13.108 18.0454 13.1385 18.1911 13.1707L18.4072 12.1944C18.2572 12.1611 18.134 12.1338 18.0353 12.1092L17.7935 13.0796ZM17.4707 16.4398L18.3995 12.7154L17.4293 12.4734L16.5004 16.1978L17.4707 16.4398ZM17.4204 15.9158C17.3063 15.8853 17.199 15.8567 17.1065 15.8336L16.8646 16.8039C16.9475 16.8246 17.046 16.8509 17.1625 16.882L17.4204 15.9158Z" fill="#FF6633"/>
</svg>
