<svg width="28" height="30" viewBox="0 0 28 30" fill="none" xmlns="http://www.w3.org/2000/svg">
<path fill-rule="evenodd" clip-rule="evenodd" d="M9.2 0C9.86274 0 10.4 0.516595 10.4 1.15385V3.07692H17.6V1.15385C17.6 0.516595 18.1373 0 18.8 0C19.4627 0 20 0.516595 20 1.15385V3.07692H23.6C26.0301 3.07692 28 4.97111 28 7.30769V25.7692C28 28.1059 26.0301 30 23.6 30H4.4C1.96996 30 0 28.1059 0 25.7692V7.30769C0 4.9711 1.96995 3.07692 4.4 3.07692H8V1.15385C8 0.516595 8.53726 0 9.2 0ZM8 5.38462H4.4C3.29543 5.38462 2.4 6.24561 2.4 7.30769V12.3077H25.6V7.30769C25.6 6.24559 24.7046 5.38462 23.6 5.38462H20V7.30769C20 7.94494 19.4627 8.46154 18.8 8.46154C18.1373 8.46154 17.6 7.94494 17.6 7.30769V5.38462H10.4V7.30769C10.4 7.94494 9.86274 8.46154 9.2 8.46154C8.53726 8.46154 8 7.94494 8 7.30769V5.38462ZM25.6 14.6154H2.4V25.7692C2.4 26.8314 3.29542 27.6923 4.4 27.6923H23.6C24.7046 27.6923 25.6 26.8314 25.6 25.7692V14.6154Z" fill="#FF6633"/>
</svg>
