<svg width="36" height="46" viewBox="0 0 36 46" fill="none" xmlns="http://www.w3.org/2000/svg">
<path fill-rule="evenodd" clip-rule="evenodd" d="M12.2803 7.03553C11.1608 8.59032 10.7708 10.5077 10.7708 11.7604V19.2083H25.6667V11.7604C25.6667 10.5077 25.2767 8.59032 24.1573 7.03553C23.1009 5.56837 21.3253 4.3125 18.2188 4.3125C15.1123 4.3125 13.3366 5.56837 12.2803 7.03553ZM29.1042 19.2083V11.7604C29.1042 9.9576 28.5775 7.29164 26.9469 5.02698C25.2533 2.67469 22.4456 0.875 18.2188 0.875C13.9919 0.875 11.1843 2.67469 9.4906 5.02698C7.86005 7.29164 7.33334 9.9576 7.33334 11.7604V19.2083H2.17709C1.22785 19.2083 0.458344 19.9778 0.458344 20.9271V43.8438C0.458344 44.793 1.22785 45.5625 2.17709 45.5625H34.2604C35.2097 45.5625 35.9792 44.793 35.9792 43.8438V20.9271C35.9792 19.9778 35.2097 19.2083 34.2604 19.2083H29.1042ZM3.89584 22.6458V42.125H32.5417V22.6458H3.89584Z" fill="#FF6633"/>
</svg>
