<?xml version="1.0" encoding="UTF-8"?>
<svg version="1.1" xmlns="http://www.w3.org/2000/svg" width="640" height="640">
<path d="M0 0 C1.50278755 -0.01058945 1.50278755 -0.01058945 3.03593445 -0.02139282 C44.95220031 -0.24969559 44.95220031 -0.24969559 64.12109375 3.203125 C65.25208496 3.40180176 66.38307617 3.60047852 67.54833984 3.80517578 C94.43380747 8.65218446 120.04770776 16.38311181 145.12109375 27.203125 C145.91161133 27.54311523 146.70212891 27.88310547 147.51660156 28.23339844 C178.4755752 41.7325525 206.25509476 61.53349185 231.12109375 84.203125 C232.84998075 85.74510529 234.57914569 87.28677401 236.30859375 88.828125 C243.05910063 94.91412886 249.21452683 101.30054875 255.12109375 108.203125 C255.92289063 109.11578125 256.7246875 110.0284375 257.55078125 110.96875 C303.46591844 163.64684493 333.99237393 235.76623963 334.32421875 306.08203125 C334.33127838 307.08388962 334.33833801 308.08574799 334.34561157 309.1179657 C334.57391434 351.03423156 334.57391434 351.03423156 331.12109375 370.203125 C330.92241699 371.33411621 330.72374023 372.46510742 330.51904297 373.63037109 C325.67203429 400.51583872 317.94110694 426.12973901 307.12109375 451.203125 C306.6111084 452.38890137 306.6111084 452.38890137 306.09082031 453.59863281 C298.81041969 470.295511 289.60369628 486.31658886 279.12109375 501.203125 C278.34610188 502.32795122 277.57137582 503.45296061 276.796875 504.578125 C271.03192729 512.87502952 264.76153813 520.59492593 258.12109375 528.203125 C257.19876953 529.27626953 257.19876953 529.27626953 256.2578125 530.37109375 C254.56376571 532.33198323 252.84606997 534.2693937 251.12109375 536.203125 C250.35925781 537.069375 249.59742188 537.935625 248.8125 538.828125 C237.07617877 551.94211247 224.19762557 563.65558365 210.12109375 574.203125 C208.94137139 575.10281887 207.76168431 576.00255901 206.58203125 576.90234375 C156.23726507 614.92596237 91.79568308 640.10631882 28.2421875 640.40625 C27.24032913 640.41330963 26.23847076 640.42036926 25.20625305 640.42764282 C-16.71001281 640.65594559 -16.71001281 640.65594559 -35.87890625 637.203125 C-37.00989746 637.00444824 -38.14088867 636.80577148 -39.30615234 636.60107422 C-66.19161997 631.75406554 -91.80552026 624.02313819 -116.87890625 613.203125 C-117.66942383 612.86313477 -118.45994141 612.52314453 -119.27441406 612.17285156 C-149.18616217 599.13032306 -176.49100487 580.2478127 -200.54296875 558.3203125 C-202.64809373 556.41232297 -204.78504259 554.55265431 -206.94140625 552.703125 C-214.15962021 546.40174063 -220.67501484 539.49143645 -226.87890625 532.203125 C-227.678125 531.29304687 -228.47734375 530.38296875 -229.30078125 529.4453125 C-275.22484036 476.77443771 -305.75019603 404.63797571 -306.08203125 334.32421875 C-306.08909088 333.32236038 -306.09615051 332.32050201 -306.10342407 331.2882843 C-306.33172684 289.37201844 -306.33172684 289.37201844 -302.87890625 270.203125 C-302.68022949 269.07213379 -302.48155273 267.94114258 -302.27685547 266.77587891 C-297.42984679 239.89041128 -289.69891944 214.27651099 -278.87890625 189.203125 C-278.53891602 188.41260742 -278.19892578 187.62208984 -277.84863281 186.80761719 C-264.34947875 155.84864355 -244.5485394 128.06912399 -221.87890625 103.203125 C-220.33692596 101.474238 -218.79525724 99.74507306 -217.25390625 98.015625 C-211.16790239 91.26511812 -204.7814825 85.10969192 -197.87890625 79.203125 C-196.96625 78.40132813 -196.05359375 77.59953125 -195.11328125 76.7734375 C-142.43518632 30.85830031 -70.31579162 0.33184482 0 0 Z " fill="#FEFEFE" transform="translate(305.87890625,-0.203125)"/>
<path d="M0 0 C1.50278755 -0.01058945 1.50278755 -0.01058945 3.03593445 -0.02139282 C44.95220031 -0.24969559 44.95220031 -0.24969559 64.12109375 3.203125 C65.25208496 3.40180176 66.38307617 3.60047852 67.54833984 3.80517578 C94.43380747 8.65218446 120.04770776 16.38311181 145.12109375 27.203125 C145.91161133 27.54311523 146.70212891 27.88310547 147.51660156 28.23339844 C178.4755752 41.7325525 206.25509476 61.53349185 231.12109375 84.203125 C232.84998075 85.74510529 234.57914569 87.28677401 236.30859375 88.828125 C243.05910063 94.91412886 249.21452683 101.30054875 255.12109375 108.203125 C255.92289063 109.11578125 256.7246875 110.0284375 257.55078125 110.96875 C303.46591844 163.64684493 333.99237393 235.76623963 334.32421875 306.08203125 C334.33127838 307.08388962 334.33833801 308.08574799 334.34561157 309.1179657 C334.57391434 351.03423156 334.57391434 351.03423156 331.12109375 370.203125 C330.92241699 371.33411621 330.72374023 372.46510742 330.51904297 373.63037109 C325.67203429 400.51583872 317.94110694 426.12973901 307.12109375 451.203125 C306.6111084 452.38890137 306.6111084 452.38890137 306.09082031 453.59863281 C298.81041969 470.295511 289.60369628 486.31658886 279.12109375 501.203125 C278.34610188 502.32795122 277.57137582 503.45296061 276.796875 504.578125 C271.03192729 512.87502952 264.76153813 520.59492593 258.12109375 528.203125 C257.19876953 529.27626953 257.19876953 529.27626953 256.2578125 530.37109375 C254.56376571 532.33198323 252.84606997 534.2693937 251.12109375 536.203125 C250.35925781 537.069375 249.59742188 537.935625 248.8125 538.828125 C237.07617877 551.94211247 224.19762557 563.65558365 210.12109375 574.203125 C208.94137139 575.10281887 207.76168431 576.00255901 206.58203125 576.90234375 C156.23726507 614.92596237 91.79568308 640.10631882 28.2421875 640.40625 C27.24032913 640.41330963 26.23847076 640.42036926 25.20625305 640.42764282 C-16.71001281 640.65594559 -16.71001281 640.65594559 -35.87890625 637.203125 C-37.00989746 637.00444824 -38.14088867 636.80577148 -39.30615234 636.60107422 C-66.19161997 631.75406554 -91.80552026 624.02313819 -116.87890625 613.203125 C-117.66942383 612.86313477 -118.45994141 612.52314453 -119.27441406 612.17285156 C-149.18616217 599.13032306 -176.49100487 580.2478127 -200.54296875 558.3203125 C-202.64809373 556.41232297 -204.78504259 554.55265431 -206.94140625 552.703125 C-214.15962021 546.40174063 -220.67501484 539.49143645 -226.87890625 532.203125 C-227.678125 531.29304687 -228.47734375 530.38296875 -229.30078125 529.4453125 C-275.22484036 476.77443771 -305.75019603 404.63797571 -306.08203125 334.32421875 C-306.08909088 333.32236038 -306.09615051 332.32050201 -306.10342407 331.2882843 C-306.33172684 289.37201844 -306.33172684 289.37201844 -302.87890625 270.203125 C-302.68022949 269.07213379 -302.48155273 267.94114258 -302.27685547 266.77587891 C-297.42984679 239.89041128 -289.69891944 214.27651099 -278.87890625 189.203125 C-278.53891602 188.41260742 -278.19892578 187.62208984 -277.84863281 186.80761719 C-264.34947875 155.84864355 -244.5485394 128.06912399 -221.87890625 103.203125 C-220.33692596 101.474238 -218.79525724 99.74507306 -217.25390625 98.015625 C-211.16790239 91.26511812 -204.7814825 85.10969192 -197.87890625 79.203125 C-196.96625 78.40132813 -196.05359375 77.59953125 -195.11328125 76.7734375 C-142.43518632 30.85830031 -70.31579162 0.33184482 0 0 Z M7.4921875 46.73828125 C6.5532666 47.29249756 5.6143457 47.84671387 4.64697266 48.41772461 C3.62780762 49.02753174 2.60864258 49.63733887 1.55859375 50.265625 C-0.63240868 51.56057933 -2.82382902 52.85482678 -5.015625 54.1484375 C-6.1504834 54.82036133 -7.2853418 55.49228516 -8.45458984 56.18457031 C-13.86592606 59.37442686 -19.30930977 62.50798718 -24.75390625 65.640625 C-26.93883916 66.89967524 -29.12373478 68.1587902 -31.30859375 69.41796875 C-32.39366211 70.04300293 -33.47873047 70.66803711 -34.59667969 71.31201172 C-40.02550567 74.43992648 -45.45209906 77.57170948 -50.87890625 80.703125 C-53.04556208 81.95314379 -55.21222875 83.20314378 -57.37890625 84.453125 C-58.45140625 85.071875 -59.52390625 85.690625 -60.62890625 86.328125 C-117.50390625 119.140625 -117.50390625 119.140625 -174.37890625 151.953125 C-175.45293701 152.57276123 -176.52696777 153.19239746 -177.63354492 153.83081055 C-179.78473849 155.07187754 -181.9359428 156.31292593 -184.0871582 157.55395508 C-189.13853624 160.46810844 -194.18980935 163.38244318 -199.24069214 166.29745483 C-201.02957543 167.32985978 -202.81849342 168.36220456 -204.60742188 169.39453125 C-206.85228261 170.68998448 -209.09707815 171.9855507 -211.34179688 173.28125 C-212.35822266 173.86777344 -213.37464844 174.45429688 -214.421875 175.05859375 C-215.3089917 175.57059326 -216.1961084 176.08259277 -217.11010742 176.61010742 C-220.36246515 178.48133872 -223.62075976 180.34199091 -226.87890625 182.203125 C-227.26818889 217.57543909 -227.56765405 252.94731909 -227.74701685 288.32132512 C-227.76827835 292.4993765 -227.79028188 296.67742366 -227.81274414 300.85546875 C-227.81720342 301.68722717 -227.8216627 302.51898558 -227.8262571 303.3759488 C-227.90019091 316.83639116 -228.03420321 330.29559675 -228.19050378 343.75530587 C-228.3495955 357.57080855 -228.44392841 371.38566449 -228.47841066 385.20204556 C-228.50171639 393.7254171 -228.57524699 402.24529331 -228.71348619 410.76758833 C-228.80349704 416.61527281 -228.83047887 422.4611564 -228.80842967 428.30948298 C-228.79755182 431.68451331 -228.82324893 435.048555 -228.90539932 438.42333031 C-229.79650171 451.51773308 -229.79650171 451.51773308 -225.22152209 463.23630953 C-221.21920553 466.58791664 -216.83306348 468.61302637 -211.96080577 470.39547753 C-208.8951651 471.58475535 -206.24625394 473.21628023 -203.4453125 474.93359375 C-201.44444004 476.08668331 -199.44313231 477.23901789 -197.44140625 478.390625 C-195.19269674 479.6861778 -192.94399917 480.98175132 -190.6953125 482.27734375 C-189.56625488 482.92751465 -188.43719727 483.57768555 -187.27392578 484.24755859 C-181.80720645 487.39644554 -176.34315738 490.54995764 -170.87890625 493.703125 C-168.71225314 494.9531485 -166.54558646 496.20314847 -164.37890625 497.453125 C-142.71223958 509.953125 -121.04557292 522.453125 -99.37890625 534.953125 C-98.30624512 535.57195557 -97.23358398 536.19078613 -96.12841797 536.82836914 C-93.96333554 538.07748018 -91.79829643 539.32666629 -89.63330078 540.57592773 C-84.19274919 543.71514809 -78.75143409 546.85303063 -73.30859375 549.98828125 C-62.85684353 556.01059871 -52.41596772 562.04991496 -42.00390625 568.140625 C-29.80544688 575.27370875 -17.55478476 582.31814331 -5.24902344 589.26464844 C-2.85311845 590.64276243 -0.49368567 592.04461798 1.85839844 593.49316406 C2.79164444 594.05639877 2.79164444 594.05639877 3.7437439 594.63101196 C5.4834853 595.68262018 7.21350023 596.75027083 8.94287109 597.81884766 C12.71055136 599.45986372 14.23589057 599.43388122 18.12109375 598.203125 C21.1589226 596.63831782 21.1589226 596.63831782 24.171875 594.61328125 C25.32001401 593.87992885 26.46929891 593.14836786 27.61962891 592.41845703 C28.2013385 592.04714661 28.7830481 591.67583618 29.38238525 591.29327393 C34.25402881 588.2388131 39.30710464 585.47494533 44.30859375 582.640625 C46.77926972 581.23547023 49.24897481 579.82861227 51.71875 578.421875 C52.33884949 578.06894882 52.95894897 577.71602264 53.59783936 577.35240173 C59.8274746 573.80528444 66.03859595 570.22632836 72.24609375 566.640625 C73.30981201 566.02630615 74.37353027 565.4119873 75.46948242 564.77905273 C77.61418962 563.54020277 79.75880255 562.30118959 81.90332031 561.06201172 C87.30780017 557.93987897 92.71454754 554.82167766 98.12109375 551.703125 C104.68052925 547.9194247 111.23955963 544.13502991 117.796875 540.34765625 C127.76757258 534.59004278 137.74249116 528.84090607 147.74609375 523.140625 C156.14041688 518.35555603 164.49149022 513.49899308 172.83300781 508.62255859 C180.207347 504.31359866 187.59671848 500.03144119 194.99609375 495.765625 C196.07157471 495.1454248 197.14705566 494.52522461 198.25512695 493.88623047 C203.78084216 490.70099763 209.30909612 487.5202363 214.83984375 484.34375 C215.95504395 483.70236084 217.07024414 483.06097168 218.21923828 482.40014648 C220.29222251 481.20797205 222.36601373 480.01719878 224.44091797 478.82836914 C226.41034053 477.6951942 228.36375949 476.5337415 230.30000687 475.34476852 C233.13989392 473.66633174 236.02199504 472.39242189 239.07316208 471.1430397 C248.89418379 466.79508141 248.89418379 466.79508141 255.26675129 458.57236576 C257.11108135 450.57417317 256.62560458 442.37709947 256.39160156 434.22949219 C256.37478698 431.47887702 256.3882567 428.72860087 256.40045166 425.97798157 C256.4109 420.07170041 256.34860092 414.16986425 256.23569489 408.26470184 C256.07257786 399.72783034 256.02101227 391.19309029 255.99593505 382.65482953 C255.95224812 368.80073371 255.81939523 354.94900378 255.62988281 341.09619141 C255.44607229 327.64611587 255.30462105 314.19668475 255.21972656 300.74560547 C255.21447209 299.91538638 255.20921762 299.0851673 255.20380393 298.22979006 C255.17770164 294.06448583 255.15242785 289.89917706 255.12756586 285.73386526 C254.92049989 251.22191633 254.56848334 216.71277656 254.12109375 182.203125 C253.46952301 181.83582779 252.81795227 181.46853058 252.14663696 181.09010315 C249.15070658 179.40068582 246.15542793 177.71011614 243.16015625 176.01953125 C242.13543213 175.4419104 241.11070801 174.86428955 240.05493164 174.26916504 C234.16966655 170.94623215 228.31003127 167.58685925 222.49609375 164.140625 C216.38205662 160.52076342 210.23365342 156.96795588 204.05859375 153.453125 C196.49046281 149.14356242 188.95193187 144.78647218 181.43359375 140.390625 C165.17237369 130.88491747 148.86057871 121.46744453 132.49609375 112.140625 C124.1018184 107.3554709 115.7506984 102.49899373 107.40917969 97.62255859 C96.77281065 91.40753555 86.10003557 85.25622591 75.42529297 79.10742188 C72.09495123 77.18805838 68.76600227 75.26630147 65.4375 73.34375 C54.356251 66.94403204 43.27100522 60.55238377 32.14331055 54.23364258 C31.3625415 53.78915771 30.58177246 53.34467285 29.77734375 52.88671875 C28.64232422 52.24065674 28.64232422 52.24065674 27.484375 51.58154297 C24.03389432 49.56900021 20.64901779 47.45068139 17.26757812 45.32446289 C13.24925731 43.22526504 11.10533141 44.58579253 7.4921875 46.73828125 Z " fill="#F7931A" transform="translate(305.87890625,-0.203125)"/>
<path d="M0 0 C1.92905745 0.30491553 3.84381628 0.69991208 5.75 1.125 C7.61785156 1.54072266 7.61785156 1.54072266 9.5234375 1.96484375 C18.02931571 3.91826268 26.515735 5.95511052 35 8 C34.4330082 14.15281237 33.43465241 19.88283949 31.8203125 25.83984375 C31.60688202 26.64684219 31.39345154 27.45384064 31.17355347 28.28529358 C30.49671304 30.83767261 29.81083371 33.38752477 29.125 35.9375 C28.67262176 37.64243088 28.22079455 39.34750806 27.76953125 41.05273438 C25.63859625 49.0754736 23.45641954 57.06950646 21 65 C22.134375 65.0825 23.26875 65.165 24.4375 65.25 C32.99479844 66.18103407 41.8427451 68.28091503 50 71 C50.14695312 70.195625 50.29390625 69.39125 50.4453125 68.5625 C53.84004275 50.76943113 58.28649975 33.19106271 64 16 C71.81896325 17.08461809 79.45028061 18.73643031 87.125 20.5625 C88.06174561 20.78446045 88.99849121 21.0064209 89.96362305 21.23510742 C96.7382419 22.86912095 96.7382419 22.86912095 99 24 C97.66492412 33.30520639 95.48830745 42.30680997 93.0625 51.375 C90.44560944 61.20376511 88.03627867 71.03259502 86 81 C86.54712646 81.1952124 87.09425293 81.3904248 87.65795898 81.59155273 C113.0344666 90.73048713 140.01002023 102.67134863 153 128 C159.56291207 144.5646932 158.07903953 162.78017521 151.8125 179.1875 C145.59434958 193.08580643 135.2476018 203.44050925 121 209 C117.99717594 209.85221307 115.07982078 210.45358018 112 211 C112 211.66 112 212.32 112 213 C113.32451172 213.38865234 113.32451172 213.38865234 114.67578125 213.78515625 C128.18209293 218.72107039 139.2689115 231.42066884 145.66015625 243.859375 C152.77842458 260.544762 149.77840822 280.69481233 143.421875 297.21875 C135.28043137 317.25347613 122.8852651 332.86756768 102.69165039 341.55737305 C89.7273615 346.62357125 77.56936002 347.63299839 63.8125 347.4375 C62.08610051 347.42704267 60.35970076 347.41662632 58.63330078 347.40625 C47.85354264 347.29428725 37.32911908 346.63142613 26.7109375 344.65625 C23.65973292 344.11666856 21.06939242 343.94449323 18 344 C17.82460693 344.70680908 17.64921387 345.41361816 17.46850586 346.1418457 C15.82621945 352.7530194 14.17571962 359.36209272 12.51481628 365.96861267 C11.6777386 369.29823403 10.84280807 372.62835222 10.01367188 375.95996094 C9.07964765 379.70454896 8.13488614 383.4462734 7.1875 387.1875 C6.8980249 388.35643799 6.6085498 389.52537598 6.31030273 390.72973633 C6.03645752 391.80247803 5.7626123 392.87521973 5.48046875 393.98046875 C5.24223389 394.92817139 5.00399902 395.87587402 4.75854492 396.85229492 C4 399 4 399 2 400 C-0.58026293 399.5215394 -3.08761592 398.97286736 -5.6328125 398.34765625 C-6.38464813 398.16867294 -7.13648376 397.98968964 -7.91110229 397.80528259 C-10.31734774 397.2308608 -12.72113675 396.64680229 -15.125 396.0625 C-16.75375389 395.6718902 -18.38265847 395.28190814 -20.01171875 394.89257812 C-24.0095988 393.93566666 -28.00530182 392.97010491 -32 392 C-30.95443249 385.20416514 -29.78641988 378.58737426 -27.8125 372 C-24.18018026 359.42842729 -21.131731 346.7033978 -18 334 C-19.31226563 333.87753906 -20.62453125 333.75507813 -21.9765625 333.62890625 C-26.57466469 333.11830618 -30.91617027 332.14385642 -35.375 330.9375 C-40.60990421 329.4908705 -40.60990421 329.4908705 -46 329 C-50.62 347.15 -55.24 365.3 -60 384 C-70.12812376 382.87465292 -70.12812376 382.87465292 -75.0234375 381.625 C-76.06371094 381.36203125 -77.10398437 381.0990625 -78.17578125 380.828125 C-79.23152344 380.55484375 -80.28726563 380.2815625 -81.375 380 C-82.45394531 379.72671875 -83.53289062 379.4534375 -84.64453125 379.171875 C-92.44196429 377.1860119 -92.44196429 377.1860119 -96 376 C-94.74563492 369.46606047 -93.32064704 363.00387709 -91.6875 356.5546875 C-91.36591919 355.2726091 -91.36591919 355.2726091 -91.0378418 353.96463013 C-90.36079883 351.26751845 -89.68047464 348.57124768 -89 345.875 C-88.54405011 344.06125339 -88.08831925 342.2474517 -87.6328125 340.43359375 C-86.79432231 337.09584879 -85.95455515 333.75843109 -85.11328125 330.42138672 C-84.07011718 326.28226722 -83.03402497 322.14141166 -82 318 C-82.85803223 317.84072021 -83.71606445 317.68144043 -84.60009766 317.51733398 C-95.3111245 315.45948415 -105.82650051 312.82456827 -116.375 310.0625 C-119.69465104 309.19665888 -123.01498023 308.33347351 -126.3359375 307.47265625 C-127.13860046 307.26444244 -127.94126343 307.05622864 -128.76824951 306.84170532 C-136.81580336 304.76690243 -144.90132513 302.86375276 -153 301 C-151.48458817 296.16259368 -149.58387042 291.59779587 -147.5234375 286.9765625 C-147.19332672 286.23038666 -146.86321594 285.48421082 -146.52310181 284.71542358 C-145.47628947 282.35080712 -144.42570743 279.98788788 -143.375 277.625 C-142.66120797 276.01443385 -141.9476637 274.40375787 -141.234375 272.79296875 C-139.49244756 268.86070254 -137.74713912 264.92995322 -136 261 C-128.83577401 262.22692634 -121.84830132 263.70915157 -114.85351562 265.67578125 C-108.80777451 267.27913831 -103.2985265 268.30105273 -97.6875 265.125 C-95.32180994 262.84278162 -94.4312927 260.80273883 -93.546875 257.66015625 C-93.29639404 256.77231445 -93.04591309 255.88447266 -92.7878418 254.96972656 C-91.3187247 249.43197001 -89.92940253 243.87627035 -88.5625 238.3125 C-86.45843137 229.81730235 -84.31844365 221.34111844 -82.02734375 212.89453125 C-80.34954334 206.62109073 -78.82436314 200.30661198 -77.28100586 193.99902344 C-75.97885802 188.72671843 -74.58172449 183.49933052 -73.0625 178.28515625 C-70.78873769 170.41398335 -68.88544301 162.47078398 -67 154.5 C-64.83182951 145.33397457 -62.5575629 136.23956964 -59.92382812 127.19287109 C-58.61517124 122.66998136 -57.41164119 118.12504669 -56.25 113.5625 C-55.91935547 112.31436523 -55.91935547 112.31436523 -55.58203125 111.04101562 C-53.6691866 103.51438774 -53.03289118 97.98211152 -57 91 C-57.33 90.01 -57.66 89.02 -58 88 C-60.21699255 86.86773029 -60.21699255 86.86773029 -63 86 C-64.57007813 85.43152344 -64.57007813 85.43152344 -66.171875 84.8515625 C-75.6631972 81.59798699 -85.20208996 79.14666573 -95 77 C-95.18859573 72.5073803 -94.58379938 68.971048 -93.25 64.6875 C-90.80897097 56.53620662 -88.88781615 48.29434119 -87 40 C-81.59199789 40.59561817 -76.39160733 41.50215281 -71.109375 42.8203125 C-70.37432236 42.99993027 -69.63926971 43.17954803 -68.88194275 43.36460876 C-66.50352748 43.94702333 -64.12676255 44.53588077 -61.75 45.125 C-60.10400561 45.52955367 -58.45792728 45.93376601 -56.81176758 46.33764648 C-51.87273868 47.55130895 -46.93601026 48.77412482 -42 50 C-41.25014832 50.18616882 -40.50029663 50.37233765 -39.72772217 50.56414795 C-31.14824689 52.69522743 -22.5721944 54.83980279 -14 57 C-13.9175 55.80375 -13.835 54.6075 -13.75 53.375 C-13.15592231 48.01473978 -11.65356682 43.04600114 -10.11865234 37.88916016 C-8.91012651 33.77359352 -7.88942801 29.62086879 -6.89453125 25.44921875 C-6.63674393 24.37125534 -6.63674393 24.37125534 -6.37374878 23.27151489 C-5.66987755 20.317089 -4.97160904 17.3613524 -4.27368164 14.40551758 C-3.75437932 12.2110465 -3.23087537 10.01760927 -2.70703125 7.82421875 C-2.54975052 7.15146408 -2.39246979 6.47870941 -2.23042297 5.78556824 C-1.11295506 1.11295506 -1.11295506 1.11295506 0 0 Z " fill="#F7931B" transform="translate(313,120)"/>
<path d="M0 0 C6.61169409 0.14940283 13.00397632 1.52267734 19.375 3.1875 C20.22860107 3.40744629 21.08220215 3.62739258 21.96166992 3.85400391 C24.64516928 4.55502973 27.32323849 5.27369401 30 6 C30.86608887 6.23380371 31.73217773 6.46760742 32.62451172 6.70849609 C43.97465586 9.81721606 54.56750606 13.53821213 65 19 C66.09183594 19.5671875 67.18367188 20.134375 68.30859375 20.71875 C79.20696815 26.70537264 86.98018355 33.94055066 91 46 C92.60559665 56.34992301 90.12933901 65.78088423 84.25 74.375 C77.38982908 82.71615075 66.8294858 86.31844694 56.29614258 87.36962891 C52.41817014 87.49921988 48.56700427 87.50396344 44.6875 87.4375 C44.00313873 87.43034973 43.31877747 87.42319946 42.61367798 87.41583252 C33.28383569 87.31434578 24.35126507 86.90456119 15.27587891 84.56982422 C12.35529628 83.83858201 9.41930564 83.18911102 6.48046875 82.53515625 C1.88717578 81.50542319 -2.70433165 80.46961914 -7.2890625 79.40234375 C-8.24506348 79.18054443 -9.20106445 78.95874512 -10.18603516 78.73022461 C-13.17750911 77.95393634 -16.0793289 77.00817919 -19 76 C-18.37820387 70.04505722 -17.22808625 64.4417299 -15.70703125 58.65625 C-15.36684715 57.33716141 -15.36684715 57.33716141 -15.01979065 55.99142456 C-14.28858509 53.15974734 -13.5506426 50.32987599 -12.8125 47.5 C-12.05864029 44.58967275 -11.30636992 41.6789379 -10.55426025 38.76815796 C-10.05885687 36.85120192 -9.56288908 34.93439165 -9.06634521 33.01773071 C-6.86417026 24.50821217 -4.73429866 15.98193212 -2.66333008 7.43945312 C-1.10691848 1.10691848 -1.10691848 1.10691848 0 0 Z " fill="#FEFEFD" transform="translate(298,330)"/>
<path d="M0 0 C22.63627087 0.97780868 52.85162142 9.40717063 69 26 C75.22205868 34.55055916 76.83574338 41.47669599 76 52 C74.43583483 58.98958378 71.70176321 65.46579466 66 70 C56.49052445 75.71362092 47.78666607 78.38035829 36.75 78.3125 C35.78054443 78.30686035 34.81108887 78.3012207 33.81225586 78.29541016 C16.28048757 78.00605505 -0.18678804 73.67449479 -17 69 C-14.51471631 56.52915027 -11.37309007 44.22107275 -8.27441406 31.8918457 C-7.36768765 28.28339946 -6.46482617 24.67400194 -5.5625 21.06445312 C-4.98720276 18.76817314 -4.41168988 16.47194716 -3.8359375 14.17578125 C-3.56615082 13.09774734 -3.29636414 12.01971344 -3.0184021 10.90901184 C-2.76789093 9.91334702 -2.51737976 8.91768219 -2.25927734 7.8918457 C-2.03960297 7.01695999 -1.81992859 6.14207428 -1.59359741 5.24067688 C-1.12601942 3.47569075 -0.57739113 1.7321734 0 0 Z " fill="#FEFEFD" transform="translate(324,226)"/>
</svg>
