<svg width="1200" height="1200" viewBox="0 0 1200 1200" fill="none" xmlns="http://www.w3.org/2000/svg">
<circle cx="600" cy="600" r="600" fill="white"/>
<path fill-rule="evenodd" clip-rule="evenodd" d="M265.287 436.48L173.138 383.853V823.451L265.287 770.115V436.48ZM294.097 808.9L202.016 862.197L588.669 1085.67C597.441 1090.74 608.25 1090.74 617.022 1085.67L1007.17 860.177L914.472 807.237L602.846 987.343L294.097 808.9ZM408.006 742.97L603.066 855.981C603.972 856.505 604.529 857.475 604.529 858.524L604.529 902.604C604.529 904.864 602.091 906.277 600.14 905.147L364.092 768.387L408.006 742.97ZM382.337 702.367L338.444 727.772V478.261L382.337 503.329V702.367ZM804.72 457.891L604.529 341.908L401.969 459.264L357.762 434.017L593.556 297.406C600.347 293.472 608.712 293.472 615.503 297.406L849.057 432.229L804.72 457.891ZM940.405 766.771V434.818L1032.55 381.482V819.398L940.405 766.771ZM1012.86 337.42L920.779 390.717L602.846 206.965L283.437 391.569L190.74 338.629L588.669 108.643C597.441 103.573 608.25 103.573 617.022 108.643L1012.86 337.42Z" fill="#FF9211"/>
<path d="M739.633 622.805C730.33 596.577 698.269 585.884 698.269 585.884C708.07 579.402 715.696 570.1 720.15 559.193C724.604 548.287 725.68 536.284 723.235 524.753C718.55 497.853 694.722 474.517 649.61 473.239V415H613.266V473.105H582.945V415H546.334V473.105H487.433V509.756H523.242V687.567H487.433V726.573H546.334V784.744H582.945V726.304H613.266V784.475H649.878V726.304H658.311C729.661 725.228 755.764 667.997 739.633 622.805ZM583.883 509.756H620.026C641.243 509.756 659.315 522.87 659.65 542.978C659.705 547.982 658.758 552.946 656.865 557.575C654.972 562.204 652.172 566.403 648.632 569.923C645.091 573.442 640.882 576.211 636.256 578.063C631.629 579.916 626.679 580.814 621.699 580.706H583.883V509.756ZM632.542 687.567C611.592 687.971 584.15 687.567 584.15 687.567V613.591H631.003C657.106 613.121 676.316 625.293 676.65 648.427C676.985 671.562 660.587 686.693 632.542 687.567Z" fill="#FF9211"/>
</svg>
