<svg width="32" height="28" viewBox="0 0 32 28" fill="none" xmlns="http://www.w3.org/2000/svg">
<path d="M25.6109 18.1449C23.8744 25.1091 16.8199 29.3475 9.85402 27.6108C2.89097 25.8745 -1.34789 18.8204 0.389416 11.8566C2.1251 4.89149 9.17958 0.652724 16.1434 2.38902C23.1089 4.12531 27.3474 11.1802 25.6109 18.1449Z" fill="url(#paint0_linear_6222_1474)"/>
<path fill-rule="evenodd" clip-rule="evenodd" d="M15.1901 7.97388C15.3062 7.54038 15.7518 7.28312 16.1853 7.39927C16.6188 7.51543 16.8761 7.96102 16.7599 8.39452L16.4157 9.67913L16.6292 9.73633C18.1661 10.1482 19.0782 11.728 18.6664 13.2649L18.6473 13.3363C18.3262 14.5347 17.2763 15.3432 16.1023 15.4128L16.102 15.4138L16.0833 15.4139L16.0819 15.4139L16.0763 15.4142C15.9907 15.4211 15.9747 15.5442 16.06 15.5708L16.0598 15.5712C17.5391 16.157 18.3766 17.7717 17.9549 19.3457C17.5008 21.0403 15.7589 22.0459 14.0643 21.5918L13.5655 21.4582L13.2214 22.7424C13.1052 23.1759 12.6596 23.4332 12.2261 23.317C11.7926 23.2009 11.5353 22.7553 11.6515 22.3218L11.9956 21.0375L10.5683 20.6551L10.2243 21.9393C10.1081 22.3728 9.66251 22.63 9.229 22.5139C8.7955 22.3977 8.53824 21.9521 8.6544 21.5186L8.99849 20.2345L7.57084 19.8519L7.57086 19.8519L6.7862 19.6416C6.31328 19.5149 6.03264 19.0288 6.15935 18.5559C6.28607 18.083 6.77217 17.8023 7.24508 17.929L8.02974 18.1393L10.2477 9.86176L9.5349 9.67077C9.06198 9.54405 8.78133 9.05795 8.90805 8.58504C9.03477 8.11213 9.52086 7.83148 9.99378 7.9582L10.7073 8.1494L10.7073 8.14957L11.8488 8.45542L12.1929 7.17085C12.3091 6.73734 12.7547 6.48008 13.1882 6.59624C13.6217 6.7124 13.879 7.15799 13.7628 7.59149L13.4186 8.87606L14.8458 9.25849L15.1901 7.97388ZM11.336 13.4592C11.1867 12.902 11.5174 12.3292 12.0746 12.1799L14.9975 11.3967C15.5547 11.2474 16.1275 11.5781 16.2768 12.1353C16.4261 12.6925 16.0955 13.2653 15.5382 13.4146L12.6153 14.1978C12.0581 14.3471 11.4853 14.0164 11.336 13.4592ZM9.99934 18.1857C9.85003 17.6285 10.1807 17.0557 10.738 16.9064L13.6609 16.1232C14.2181 15.9739 14.7909 16.3046 14.9402 16.8618C15.0895 17.4191 14.7588 17.9918 14.2016 18.1412L11.2787 18.9244C10.7214 19.0737 10.1487 18.743 9.99934 18.1857Z" fill="white"/>
<circle cx="24" cy="8" r="8" fill="white"/>
<path fill-rule="evenodd" clip-rule="evenodd" d="M24 16C28.4183 16 32 12.4183 32 8C32 3.58172 28.4183 0 24 0C19.5817 0 16 3.58172 16 8C16 10.0136 16.7439 11.8534 17.9719 13.2597L22.1706 9.36646C22.2826 9.19698 22.3671 9.00996 22.42 8.81227L22.436 8.75265L20.113 8.40735C19.8406 8.36687 19.8406 7.97404 20.113 7.93357L22.1879 7.62519L19.7858 4.3844C19.6218 4.16317 19.8996 3.8854 20.1208 4.04938L23.3624 6.45203L23.6711 4.37553C23.7116 4.10315 24.1044 4.10315 24.1449 4.37553L24.4533 6.45061L27.6929 4.04938C27.9142 3.8854 28.1919 4.16317 28.028 4.3844L25.6261 7.62489L27.7029 7.93357C27.9753 7.97404 27.9753 8.36687 27.7029 8.40735L25.6261 8.71603L28.028 11.9565C28.1919 12.1778 27.9142 12.4555 27.693 12.2916L24.4533 9.89031L24.1449 11.9654C24.1044 12.2378 23.7115 12.2378 23.6711 11.9654L23.3256 9.64107L23.1297 9.69357C23.0206 9.72284 22.9173 9.7693 22.8238 9.83087L18.8544 14.1258C20.2454 15.2955 22.0404 16 24 16Z" fill="#4F32E8"/>
<defs>
<linearGradient id="paint0_linear_6222_1474" x1="13" y1="2" x2="13" y2="28" gradientUnits="userSpaceOnUse">
<stop stop-color="#FEDF70"/>
<stop offset="1" stop-color="#D88528"/>
</linearGradient>
</defs>
</svg>
