<?xml version="1.0" encoding="UTF-8"?>
<svg version="1.1" xmlns="http://www.w3.org/2000/svg" width="122" height="122">
<path d="M0 0 C2.65960483 1.39957069 5.26812965 2.87980261 7.875 4.375 C8.8247168 4.91656738 9.77443359 5.45813477 10.75292969 6.01611328 C40.09127977 22.80755953 40.09127977 22.80755953 43.875 30.375 C43.98577454 32.06869615 44.03416633 33.76664606 44.05200195 35.46386719 C44.07125481 37.05627228 44.07125481 37.05627228 44.09089661 38.68084717 C44.09828354 39.83288635 44.10567047 40.98492554 44.11328125 42.171875 C44.121353 43.35340149 44.12942474 44.53492798 44.13774109 45.7522583 C44.1515917 48.25734994 44.16230946 50.76246052 44.17016602 53.26757812 C44.18736706 57.09541721 44.23124487 60.92239024 44.27539062 64.75 C44.2855183 67.18228531 44.29403417 69.61457797 44.30078125 72.046875 C44.31828934 73.19081726 44.33579742 74.33475952 44.35383606 75.5133667 C44.33672029 81.79794841 44.12710127 85.61728824 39.875 90.375 C34.61165985 95.53934315 28.18210042 98.73673188 21.75 102.25 C19.60095598 103.43379543 17.45251679 104.61868953 15.3046875 105.8046875 C13.71865723 106.67818848 13.71865723 106.67818848 12.10058594 107.56933594 C7.8047328 109.97412929 3.56922001 112.47623557 -0.65966797 114.99658203 C-5.74523464 117.84002721 -10.42690737 118.15201263 -16.125 117.375 C-20.38612529 115.86236489 -24.21592503 113.61834228 -28.125 111.375 C-29.80684607 110.43279791 -31.48917678 109.49146062 -33.171875 108.55078125 C-38.52000073 105.54374533 -43.83083281 102.47591616 -49.125 99.375 C-49.76550293 99.00133301 -50.40600586 98.62766602 -51.06591797 98.24267578 C-63.63463711 90.84608867 -63.63463711 90.84608867 -66.125 83.375 C-66.22725793 81.70433163 -66.27342074 80.02994784 -66.28613281 78.35620117 C-66.29574036 77.33471481 -66.3053479 76.31322845 -66.31524658 75.26078796 C-66.31949646 74.15765762 -66.32374634 73.05452728 -66.328125 71.91796875 C-66.33382507 70.7822493 -66.33952515 69.64652985 -66.34539795 68.47639465 C-66.35484953 66.07143079 -66.36138256 63.66645396 -66.36523438 61.26147461 C-66.37493401 57.58749712 -66.40595426 53.9140804 -66.4375 50.24023438 C-66.44403072 47.90364916 -66.44928092 45.56705993 -66.453125 43.23046875 C-66.4654718 42.1334111 -66.4778186 41.03635345 -66.49053955 39.90605164 C-66.47173107 33.44492841 -66.04885293 28.84097014 -61.72924805 23.72045898 C-56.27465387 19.132751 -50.18420801 15.82750452 -43.9375 12.4375 C-41.79757379 11.2628171 -39.65824918 10.0870376 -37.51953125 8.91015625 C-36.46846191 8.33410645 -35.41739258 7.75805664 -34.33447266 7.16455078 C-30.04165009 4.77094136 -25.81399293 2.27253539 -21.5925293 -0.24438477 C-14.27655986 -4.3377663 -7.36553236 -3.57934295 0 0 Z " fill="#A5A2AF" transform="translate(72.125,3.625)"/>
<path d="M0 0 C0.87914062 0.46664063 1.75828125 0.93328125 2.6640625 1.4140625 C3.67726562 1.9503125 4.69046875 2.4865625 5.734375 3.0390625 C12.6674711 6.8974812 19.48454595 10.95957746 26.2890625 15.0390625 C24.90426097 19.19346708 22.83767218 19.72793348 19.0390625 21.7890625 C17.89953125 22.42328125 16.76 23.0575 15.5859375 23.7109375 C12.02686739 25.14468612 10.81990748 25.36240702 7.2890625 24.0390625 C4.73328119 22.57688016 2.32828932 20.96088722 -0.11328125 19.31640625 C-3.3260187 17.73660904 -5.16290224 17.57979905 -8.7109375 18.0390625 C-11.94540154 19.48925267 -11.94540154 19.48925267 -15.0234375 21.4765625 C-16.07144531 22.11464844 -17.11945312 22.75273438 -18.19921875 23.41015625 C-20.55588643 24.8145045 -20.55588643 24.8145045 -21.7109375 26.0390625 C-21.89155332 28.82528364 -21.98906848 31.5630892 -22.0234375 34.3515625 C-22.06694336 35.51075195 -22.06694336 35.51075195 -22.11132812 36.69335938 C-22.17616083 41.37940333 -22.17616083 41.37940333 -19.96484375 45.41015625 C-17.79082863 46.98132489 -15.66839745 48.46324316 -13.3359375 49.7890625 C-12.60632813 50.21703125 -11.87671875 50.645 -11.125 51.0859375 C-8.04575169 52.3016925 -6.00474167 52.42583496 -2.7109375 52.0390625 C0.42022043 50.51051471 0.42022043 50.51051471 3.4140625 48.4765625 C8.70940945 45.02043911 8.70940945 45.02043911 11.234375 45.1015625 C14.24210874 46.4739125 17.15019006 47.99839702 20.0390625 49.6015625 C20.64105469 49.93091797 21.24304688 50.26027344 21.86328125 50.59960938 C23.34076753 51.408709 24.81522286 52.22333912 26.2890625 53.0390625 C26.2890625 53.6990625 26.2890625 54.3590625 26.2890625 55.0390625 C22.64322802 57.16050361 18.99532168 59.27832261 15.34545898 61.39282227 C14.10432403 62.11253462 12.86375887 62.83323052 11.6237793 63.55493164 C9.84052328 64.59260525 8.05524253 65.62671499 6.26953125 66.66015625 C4.65921021 67.59492798 4.65921021 67.59492798 3.01635742 68.54858398 C-1.19259145 70.84879281 -4.96501351 71.92892325 -9.7109375 71.0390625 C-13.57618368 69.37344655 -17.10704645 67.20316374 -20.7109375 65.0390625 C-22.02209777 64.29451077 -23.33467161 63.5524444 -24.6484375 62.8125 C-26.0032626 62.03500039 -27.35743469 61.25636172 -28.7109375 60.4765625 C-29.35804687 60.11312744 -30.00515625 59.74969238 -30.671875 59.37524414 C-34.62135467 57.05002965 -36.76080723 55.17237777 -38.7109375 51.0390625 C-39.25164332 46.47589739 -39.1840067 41.91013816 -39.15698242 37.31958008 C-39.1484746 35.11119277 -39.17725339 32.90539765 -39.20898438 30.69726562 C-39.21059684 29.28125077 -39.21001799 27.86523137 -39.20703125 26.44921875 C-39.20888428 25.17183838 -39.2107373 23.89445801 -39.21264648 22.57836914 C-38.61270099 18.34605292 -37.44814766 16.30141833 -34.7109375 13.0390625 C-30.85465499 10.16460629 -26.61352135 7.97283913 -22.3984375 5.6640625 C-21.28275391 5.02339844 -20.16707031 4.38273437 -19.01757812 3.72265625 C-17.93025391 3.11808594 -16.84292969 2.51351563 -15.72265625 1.890625 C-14.73740967 1.34229004 -13.75216309 0.79395508 -12.73706055 0.22900391 C-8.3131279 -1.51058849 -4.47809821 -1.58733741 0 0 Z " fill="#F9F7F4" transform="translate(66.7109375,25.9609375)"/>
<path d="M0 0 C0.66 0 1.32 0 2 0 C1.34 1.65 0.68 3.3 0 5 C-0.66 5 -1.32 5 -2 5 C-2 16.55 -2 28.1 -2 40 C-5.47313292 36.52686708 -4.33871545 31.43723811 -4.37109375 26.7421875 C-4.37093262 26.00452148 -4.37077148 25.26685547 -4.37060547 24.50683594 C-4.37495716 22.27199886 -4.41120388 20.03917205 -4.44921875 17.8046875 C-4.4550914 16.37500673 -4.45905779 14.9453166 -4.4609375 13.515625 C-4.46915527 12.21915039 -4.47737305 10.92267578 -4.48583984 9.58691406 C-3.92091298 5.41610727 -2.66769641 3.22012644 0 0 Z " fill="#EDE9E8" transform="translate(32,39)"/>
<path d="M0 0 C-1.5830577 4.2742558 -4.50568404 6.26531794 -8 9 C-8.6875 7.3125 -8.6875 7.3125 -9 5 C-7.70584313 2.07111866 -6.93734103 0.39765983 -3.9375 -0.875 C-2 -1 -2 -1 0 0 Z " fill="#ADAAB7" transform="translate(114,90)"/>
<path d="M0 0 C0.66 0.33 1.32 0.66 2 1 C-1.22602796 4.54863075 -5.07407519 6.7463412 -9.9375 7.16796875 C-10.9584375 7.17763672 -10.9584375 7.17763672 -12 7.1875 C-12.680625 7.20167969 -13.36125 7.21585937 -14.0625 7.23046875 C-16 7 -16 7 -19 5 C-18.67 4.34 -18.34 3.68 -18 3 C-16.515 3.99 -16.515 3.99 -15 5 C-9.60723306 5.89879449 -6.37154639 3.7688786 -1.953125 0.99609375 C-1.30859375 0.66738281 -0.6640625 0.33867188 0 0 Z " fill="#E8E4E6" transform="translate(73,73)"/>
<path d="M0 0 C0.66 0 1.32 0 2 0 C2 0.66 2 1.32 2 2 C4.31 2 6.62 2 9 2 C8.67 3.32 8.34 4.64 8 6 C4.54074837 4.7508258 1.85306797 3.32472205 -1 1 C-0.67 0.67 -0.34 0.34 0 0 Z " fill="#B5B3BD" transform="translate(17,97)"/>
<path d="M0 0 C1.65 0.33 3.3 0.66 5 1 C3.125 5.75 3.125 5.75 2 8 C0.68 7.01 -0.64 6.02 -2 5 C-1.34 5 -0.68 5 0 5 C0 3.35 0 1.7 0 0 Z " fill="#ACA9B6" transform="translate(27,98)"/>
<path d="M0 0 C0.66 0.33 1.32 0.66 2 1 C1 4 1 4 -1.375 5.25 C-4 6 -4 6 -7 5 C-6.67 4.34 -6.34 3.68 -6 3 C-4.02 3 -2.04 3 0 3 C0 2.01 0 1.02 0 0 Z " fill="#BBB8C4" transform="translate(70,115)"/>
<path d="M0 0 C0.99 0.99 1.98 1.98 3 3 C1.68 4.32 0.36 5.64 -1 7 C-1.625 5.1875 -1.625 5.1875 -2 3 C-1.34 2.01 -0.68 1.02 0 0 Z " fill="#B3B1BD" transform="translate(107,92)"/>
<path d="M0 0 C0.66 0.33 1.32 0.66 2 1 C1.01 2.32 0.02 3.64 -1 5 C-3.475 4.01 -3.475 4.01 -6 3 C-3 1 -3 1 0 0 Z " fill="#B5B3BF" transform="translate(38,105)"/>
<path d="M0 0 C2 1 2 1 3 3 C2.34 3 1.68 3 1 3 C1 3.66 1 4.32 1 5 C0.34 5 -0.32 5 -1 5 C-1.66 5.66 -2.32 6.32 -3 7 C-2.25 2.25 -2.25 2.25 0 0 Z " fill="#ACA9B8" transform="translate(47,49)"/>
<path d="M0 0 C1.65 0 3.3 0 5 0 C5 0.99 5 1.98 5 3 C3.68 3.33 2.36 3.66 1 4 C0.67 2.68 0.34 1.36 0 0 Z " fill="#B4B1BE" transform="translate(96,99)"/>
<path d="M0 0 C3.465 1.485 3.465 1.485 7 3 C6.01 3.66 5.02 4.32 4 5 C1.3125 4.125 1.3125 4.125 -1 3 C-0.67 2.01 -0.34 1.02 0 0 Z " fill="#B9B6C2" transform="translate(94,17)"/>
</svg>
